<?xml version="1.0" encoding="UTF-8"?>
<svg version="1.1" xmlns="http://www.w3.org/2000/svg" width="500" height="234">
<path d="M0 0 C0 1.98 0 3.96 0 6 C-0.68811768 6.00410889 -1.37623535 6.00821777 -2.08520508 6.01245117 C-25.24458741 5.09580124 -25.24458741 5.09580124 -46 13 C-30.6791847 16.58708125 -15.78826852 19.95823209 0 20 C0 21.98 0 23.96 0 26 C-3.3 26 -6.6 26 -10 26 C-10.14099121 26.96711914 -10.28198242 27.93423828 -10.42724609 28.93066406 C-10.95906369 32.57635117 -11.49249253 36.22180111 -12.02636719 39.8671875 C-12.25563649 41.43418221 -12.4844896 43.00123787 -12.71289062 44.56835938 C-14.04843555 53.72972893 -15.44002666 62.87342698 -17 72 C-11.39 72.33 -5.78 72.66 0 73 C0 75.31 0 77.62 0 80 C-5.61 80 -11.22 80 -17 80 C-16.67720314 81.73767387 -16.67720314 81.73767387 -16.34788513 83.51045227 C-14.32364304 94.4127462 -12.30725809 105.31646756 -10.29861355 116.22164631 C-9.26562559 121.82843971 -8.22984846 127.43468816 -7.18774414 133.03979492 C-6.18269667 138.44615216 -5.18491453 143.85380364 -4.19221687 149.26244164 C-3.81165631 151.32864631 -3.42845288 153.39436598 -3.04260063 155.459589 C-2.503796 158.34593579 -1.97430188 161.23384358 -1.44702148 164.12231445 C-1.28446365 164.98114731 -1.12190582 165.83998016 -0.954422 166.72483826 C0.11405216 172.65784352 0.11405216 172.65784352 -1 176 C-8.11332508 167.75528312 -15.14077986 159.45845544 -22 151 C-23.499145 149.16596746 -24.99915322 147.33264019 -26.5 145.5 C-29.5 141.83333333 -32.5 138.16666667 -35.5 134.5 C-36.24894531 133.58476562 -36.99789062 132.66953125 -37.76953125 131.7265625 C-39.20499935 129.97182216 -40.63993796 128.21664845 -42.07421875 126.4609375 C-46.70323818 120.7965921 -51.34813906 115.14559447 -56 109.5 C-62.03536619 102.175355 -68.05094229 94.834968 -74.0546875 87.484375 C-78.08221801 82.55692009 -82.1191255 77.63743743 -86.16625977 72.72607422 C-87.38499414 71.24658813 -88.60293563 69.76644853 -89.82006836 68.28564453 C-92.47421028 65.05750684 -95.13244982 61.83420267 -97.828125 58.640625 C-98.62734375 57.68671875 -99.4265625 56.7328125 -100.25 55.75 C-100.93578125 54.94046875 -101.6215625 54.1309375 -102.328125 53.296875 C-104.04355133 50.9401678 -105.04638806 48.74406701 -106 46 C-99.12172809 39.53726757 -92.20335482 33.26130861 -84.828125 27.36328125 C-80.95583316 24.12745727 -77.2968782 20.67589597 -73.67773438 17.16015625 C-73.17048828 16.67804687 -72.66324219 16.1959375 -72.140625 15.69921875 C-71.70266602 15.27471436 -71.26470703 14.85020996 -70.81347656 14.4128418 C-63.53887375 8.74535035 -55.05495679 6.61147373 -46.3125 4.25 C-45.19890106 3.94535324 -45.19890106 3.94535324 -44.06280518 3.634552 C-29.20704571 -0.35407017 -15.3803457 -1.08169058 0 0 Z M-67.9375 20.6875 C-68.89140625 21.50347656 -69.8453125 22.31945312 -70.828125 23.16015625 C-75.54031631 27.34364089 -80.14519905 31.64369496 -84.73828125 35.95703125 C-88.4104402 39.39948087 -92.17255326 42.73121785 -96 46 C-93.55805636 48.74234147 -90.93195718 50.27627 -87.703125 51.99609375 C-86.14078125 52.83430664 -86.14078125 52.83430664 -84.546875 53.68945312 C-83.45890625 54.26630859 -82.3709375 54.84316406 -81.25 55.4375 C-79.10900413 56.58133734 -76.96836989 57.72585187 -74.828125 58.87109375 C-73.31508789 59.67716064 -73.31508789 59.67716064 -71.77148438 60.49951172 C-69.43935593 61.76213165 -67.1446973 63.06560523 -64.859375 64.41015625 C-62.25394392 66.16198234 -62.25394392 66.16198234 -60 66 C-57.59329043 60.23585727 -55.19099147 54.46989108 -52.79174805 48.70263672 C-51.97505476 46.7409508 -51.1573532 44.77968434 -50.33862305 42.81884766 C-49.16189408 40.00012152 -47.98880084 37.17990621 -46.81640625 34.359375 C-46.44971329 33.48319519 -46.08302032 32.60701538 -45.70521545 31.70428467 C-45.3649382 30.88373596 -45.02466095 30.06318726 -44.67407227 29.21777344 C-44.3742897 28.49829529 -44.07450714 27.77881714 -43.76564026 27.03753662 C-43.01608603 25.04280846 -42.47271161 23.07605612 -42 21 C-44.56076097 20.32595716 -47.12326583 19.660586 -49.6875 19 C-50.40873047 18.80921875 -51.12996094 18.6184375 -51.87304688 18.421875 C-58.63712777 16.69224701 -62.32004944 15.86635984 -67.9375 20.6875 Z M-36 22 C-38.56792791 28.22783225 -41.13130645 34.45750942 -43.69042969 40.68896484 C-44.56221763 42.80992545 -45.43526118 44.93037041 -46.30957031 47.05029297 C-47.56383013 50.09208634 -48.81360821 53.1356869 -50.0625 56.1796875 C-50.65309204 57.60787308 -50.65309204 57.60787308 -51.25561523 59.06491089 C-51.61598877 59.94567291 -51.9763623 60.82643494 -52.34765625 61.73388672 C-52.66742432 62.51110077 -52.98719238 63.28831482 -53.31665039 64.08908081 C-54.11224009 65.97563021 -54.11224009 65.97563021 -54 68 C-47.54500633 69.76743874 -41.13284756 70.77195661 -34.5 71.625 C-33.48679687 71.7590625 -32.47359375 71.893125 -31.4296875 72.03125 C-28.95363391 72.35827595 -26.47711025 72.68109442 -24 73 C-23.15693795 68.23637236 -22.32108943 63.471551 -21.49145508 58.70556641 C-21.20917975 57.08967269 -20.92505016 55.4741016 -20.63891602 53.85888672 C-18.99521433 44.57240396 -17.59863112 35.42654574 -17 26 C-23.27 24.68 -29.54 23.36 -36 22 Z M-87 60 C-84.74634615 64.0402676 -82.02783861 67.46559975 -79 70.9375 C-75.06319096 75.51458993 -71.25844324 80.16402033 -67.5625 84.9375 C-63.36333938 90.34940104 -58.98290841 95.56564786 -54.49169922 100.73657227 C-50.44390906 105.42130764 -46.61189812 110.25045056 -42.81713867 115.14111328 C-39.36928919 119.57179364 -35.77945171 123.84647286 -32 128 C-31.67 127.34 -31.34 126.68 -31 126 C-31.99793008 123.67923773 -31.99793008 123.67923773 -33.54296875 121.07421875 C-34.1167627 120.05956543 -34.69055664 119.04491211 -35.28173828 117.99951172 C-35.91063965 116.90654785 -36.53954102 115.81358398 -37.1875 114.6875 C-37.82155762 113.57133301 -38.45561523 112.45516602 -39.10888672 111.30517578 C-40.4219934 108.9963484 -41.73769275 106.68931859 -43.05908203 104.38525391 C-44.8666112 101.2326502 -46.66709109 98.07615471 -48.46484375 94.91796875 C-52.11257052 88.5005887 -52.11257052 88.5005887 -55.81787109 82.11645508 C-57 80 -57 80 -58.578125 76.34765625 C-61.6236673 71.02066402 -67.87050057 68.73891462 -73.125 66.0625 C-74.23488281 65.47404297 -75.34476563 64.88558594 -76.48828125 64.27929688 C-81.49406769 61.27082067 -81.49406769 61.27082067 -87 60 Z M-53 75 C-52.44820068 76.01054443 -52.44820068 76.01054443 -51.88525391 77.04150391 C-49.32069238 81.74034236 -46.7593109 86.44079718 -44.2109375 91.1484375 C-37.31556091 103.86861496 -30.23627467 116.47089387 -23 129 C-22.4735791 129.91168945 -21.9471582 130.82337891 -21.40478516 131.76269531 C-18.27582714 137.17860255 -15.14045486 142.59075197 -12 148 C-10.55027527 145.10055054 -11.36200561 143.22115412 -11.97216797 140.05322266 C-12.32781326 138.18085434 -12.32781326 138.18085434 -12.69064331 136.2706604 C-12.95765164 134.90176067 -13.2248374 133.53289553 -13.4921875 132.1640625 C-13.76081232 130.764133 -14.02888148 129.36409678 -14.29641724 127.96395874 C-15.0035852 124.2719454 -15.71894101 120.58156227 -16.43579102 116.89141846 C-17.01856308 113.88418177 -17.5955645 110.87585211 -18.1722393 107.86744118 C-18.86030466 104.27844557 -19.55084824 100.68992875 -20.2421875 97.1015625 C-20.37391232 96.41766071 -20.50563713 95.73375893 -20.64135361 95.02913284 C-21.01593985 93.08769078 -21.39244989 91.14662019 -21.76904297 89.20556641 C-21.98301727 88.10129303 -22.19699158 86.99701965 -22.41744995 85.85928345 C-22.88755918 83.55188421 -23.40246693 81.27698764 -24 79 C-28.08250882 78.32821737 -32.16613117 77.66346058 -36.25 77 C-37.40886719 76.80921875 -38.56773438 76.6184375 -39.76171875 76.421875 C-40.87675781 76.24140625 -41.99179688 76.0609375 -43.140625 75.875 C-44.16704102 75.70742187 -45.19345703 75.53984375 -46.25097656 75.3671875 C-49.19855847 74.91173709 -49.19855847 74.91173709 -53 75 Z " fill="#DB8E2E" transform="translate(113,31)"/>
<path d="M0 0 C1.98 0 3.96 0 6 0 C6 73.92 6 147.84 6 224 C4.02 224 2.04 224 0 224 C0 150.08 0 76.16 0 0 Z " fill="#DB8E2E" transform="translate(122,7)"/>
<path d="M0 0 C5.94 0 11.88 0 18 0 C16.02 0.99 16.02 0.99 14 2 C14 14.21 14 26.42 14 39 C23.85444108 41.47144368 23.85444108 41.47144368 33.75 43.6875 C35.53664063 44.06455078 35.53664063 44.06455078 37.359375 44.44921875 C38.23078125 44.63097656 39.1021875 44.81273437 40 45 C34.73677223 42.54144009 29.63308675 40.43823491 24 39 C24.65194336 38.49694336 25.30388672 37.99388672 25.97558594 37.47558594 C28.6695912 34.18118008 28.51027119 31.45427667 28.390625 27.390625 C28.38496521 26.66381531 28.37930542 25.93700562 28.37347412 25.18817139 C28.35114553 22.87476755 28.30096048 20.5629328 28.25 18.25 C28.22993023 16.67840784 28.21168029 15.10679132 28.1953125 13.53515625 C28.15129293 9.68950283 28.08229375 5.84501711 28 2 C26.68 1.34 25.36 0.68 24 0 C29.94 0 35.88 0 42 0 C41.01 0.99 40.02 1.98 39 3 C38.73843739 5.72906362 38.65078869 8.2246099 38.70703125 10.94921875 C38.71339851 12.10814384 38.71339851 12.10814384 38.71989441 13.29048157 C38.73667817 15.75650992 38.77432853 18.22171896 38.8125 20.6875 C38.82754729 22.36001423 38.84123562 24.03254128 38.85351562 25.70507812 C38.88658054 29.80370078 38.93835972 33.90171151 39 38 C40.25233098 38.47724137 41.50540961 38.95252104 42.75878906 39.42700195 C43.45651428 39.69188919 44.1542395 39.95677643 44.87310791 40.22969055 C56.29066351 44.36485613 67.96901959 46.66632539 80 44 C78.5039904 47.80802445 76.33936849 49.69424557 73 52 C66.9487681 53.90961007 60.83982154 53.28383931 54.75 51.875 C50.65466067 50.96911849 48.84049982 51.22746162 45 53 C33.61174655 54.70823802 22.89687247 48.71651494 13.05078125 43.73046875 C8.62825073 41.54423668 4.92358675 40.43121609 0 40 C0 39.34 0 38.68 0 38 C0.99 37.34 1.98 36.68 3 36 C3.30470628 33.48128636 3.42023896 31.21200568 3.3984375 28.69140625 C3.40130768 27.96888168 3.40417786 27.24635712 3.40713501 26.50193787 C3.40917756 24.97288226 3.40363427 23.44380063 3.39111328 21.91479492 C3.375084 19.57476219 3.39094177 17.23646265 3.41015625 14.89648438 C3.40817339 13.41145452 3.40432883 11.92642574 3.3984375 10.44140625 C3.40754654 9.39129112 3.40754654 9.39129112 3.4168396 8.31996155 C3.35431242 3.99563078 3.2231267 3.2231267 0 0 Z " fill="#000000" transform="translate(322,85)"/>
<path d="M0 0 C5.63286176 -0.40801413 10.60731552 -0.6869254 15.42578125 2.5703125 C22.48690549 8.98314494 26.86488073 19.50936169 31 28 C31 28.66 31 29.32 31 30 C33.73966732 27.54758483 35.35108675 24.87577523 37.13671875 21.67578125 C37.71357422 20.64775391 38.29042969 19.61972656 38.88476562 18.56054688 C39.47966797 17.48869141 40.07457031 16.41683594 40.6875 15.3125 C41.29400391 14.22904297 41.90050781 13.14558594 42.52539062 12.02929688 C44.02140286 9.35532225 45.51273714 6.67884784 47 4 C47.66 4 48.32 4 49 4 C50.60269609 10.43684446 51.996454 16.87866932 53.171875 23.40625 C53.48475464 25.12158936 53.48475464 25.12158936 53.80395508 26.87158203 C54.22101952 29.17789214 54.62739857 31.4861643 55.0222168 33.79638672 C56.14337479 39.95475723 57.23209383 44.93185163 61 50 C63.04540458 51.41897258 63.04540458 51.41897258 65.25 51.9375 C67.10625 52.4634375 67.10625 52.4634375 69 53 C69 53.66 69 54.32 69 55 C57.28103993 55.76289794 57.28103993 55.76289794 52.61181641 52.41503906 C46.78966489 47.30368035 44.99071556 40.34539678 43.6875 33 C43.51927734 32.12988281 43.35105469 31.25976562 43.17773438 30.36328125 C42.77036834 28.24497787 42.38305184 26.12283479 42 24 C40.34646741 26.91236539 38.70355095 29.83058604 37.0625 32.75 C36.59392578 33.575 36.12535156 34.4 35.64257812 35.25 C35.19462891 36.04921875 34.74667969 36.8484375 34.28515625 37.671875 C33.87144775 38.4050293 33.45773926 39.13818359 33.03149414 39.89355469 C32.03422999 41.9300979 31.457253 43.78593284 31 46 C30.34 46 29.68 46 29 46 C25.04 38.41 21.08 30.82 17 23 C15.76969883 29.76665645 14.66855537 36.20302043 14 43 C14.99 43.33 15.98 43.66 17 44 C12.71 44 8.42 44 4 44 C5.32 43.01 6.64 42.02 8 41 C9.4537318 36.72980806 9.95572024 32.26578458 10.625 27.8125 C10.95951172 26.00168945 10.95951172 26.00168945 11.30078125 24.15429688 C12.53321204 16.27589436 12.53321204 16.27589436 9.328125 9.26171875 C6.3176766 5.84744099 3.29805505 4.37537761 -1 3 C-0.67 2.01 -0.34 1.02 0 0 Z " fill="#000000" transform="translate(223,80)"/>
<path d="M0 0 C4.18726294 -0.11679952 8.37410301 -0.18745327 12.5625 -0.25 C14.33463867 -0.30027344 14.33463867 -0.30027344 16.14257812 -0.3515625 C22.9801326 -0.42817375 27.51104314 -0.25256342 33 4 C34.85877715 7.7175543 34.57823915 11.95232596 34 16 C31.6875 19.125 31.6875 19.125 29 21 C28.01 21 27.02 21 26 21 C26 21.66 26 22.32 26 23 C26.55300781 23.19078125 27.10601562 23.3815625 27.67578125 23.578125 C31.01572891 25.6213871 32.92110444 28.63580758 35.1875 31.75 C41.86602828 40.54306063 47.90380593 45.23869935 59 47 C59 47.66 59 48.32 59 49 C53.62117984 51.86870409 47.72596825 51.68546957 41.85546875 50.60546875 C29.60533437 46.86035863 22.07168288 32.41190762 16 22 C15.67 21.01 15.34 20.02 15 19 C17.64 18.34 20.28 17.68 23 17 C23.76173392 12.6835078 24.16063604 9.25566547 23 5 C20.03 4.34 17.06 3.68 14 3 C14 14.22 14 25.44 14 37 C15.32 37.66 16.64 38.32 18 39 C12.06 39 6.12 39 0 39 C1.32 37.68 2.64 36.36 4 35 C4.34959406 32.31827524 4.46923774 30.06062042 4.390625 27.390625 C4.38213531 26.30041046 4.38213531 26.30041046 4.37347412 25.18817139 C4.35114553 22.87476755 4.30096048 20.5629328 4.25 18.25 C4.22993023 16.67840784 4.21168029 15.10679132 4.1953125 13.53515625 C4.15129293 9.68950283 4.08229375 5.84501711 4 2 C2.68 1.34 1.36 0.68 0 0 Z " fill="#000000" transform="translate(409,85)"/>
<path d="M0 0 C0 3.3 0 6.6 0 10 C-1.65654479 8.34345521 -3.299124 6.6709636 -4.875 4.9375 C-8.53853176 1.59722104 -10.9637751 0.98355199 -15.9375 1.0625 C-20.56415348 1.81465917 -22.81343416 3.58582232 -26 7 C-28.83257515 12.53639689 -29.07545681 19.3764438 -27.3125 25.31640625 C-25.71853877 28.92274353 -24.40489634 30.71833298 -21.125 33 C-16.96692888 34.33058276 -13.81264722 34.68586651 -9.6875 33.125 C-7.8410805 32.09561011 -7.8410805 32.09561011 -7 30 C-6.93049459 28.45976004 -6.91547643 26.91665012 -6.9375 25.375 C-6.94652344 24.55773437 -6.95554688 23.74046875 -6.96484375 22.8984375 C-6.97644531 22.27195312 -6.98804688 21.64546875 -7 21 C-7.99 20.67 -8.98 20.34 -10 20 C-10 19.34 -10 18.68 -10 18 C-4.39 18 1.22 18 7 18 C6.67 18.66 6.34 19.32 6 20 C5.01 20 4.02 20 3 20 C3.08775663 22.20904631 3.19594367 24.41728593 3.3125 26.625 C3.37050781 27.85476562 3.42851562 29.08453125 3.48828125 30.3515625 C4.17581065 35.25348966 5.77893962 38.6309323 9.0625 42.3125 C13.23264769 44.70811676 17.25879707 44.81587561 22 45 C22 45.66 22 46.32 22 47 C15.78539389 49.07153537 8.4411618 49.13339655 2.5 46.375 C0 44 0 44 -2.11328125 40.85546875 C-3.68869035 38.94867045 -4.48630942 38.10791273 -6.92919922 37.59472656 C-9.20412677 37.58954803 -11.42169311 37.73564062 -13.6875 37.9375 C-21.22902752 38.28002053 -26.80041762 37.77394002 -33 33 C-37.41702403 28.58297597 -39.28497107 23.90849913 -39.375 17.6875 C-39.23398322 11.52423742 -37.91913736 6.83243031 -33.421875 2.46875 C-23.53638285 -5.19027996 -11.0811137 -4.43244548 0 0 Z " fill="#000000" transform="translate(181,87)"/>
<path d="M0 0 C0 3.3 0 6.6 0 10 C-1.11375 8.7934375 -1.11375 8.7934375 -2.25 7.5625 C-4.89498047 4.68347114 -4.89498047 4.68347114 -9 4 C-9 8.95 -9 13.9 -9 19 C-7.39125 18.9175 -5.7825 18.835 -4.125 18.75 C-3.22007812 18.70359375 -2.31515625 18.6571875 -1.3828125 18.609375 C1.17110544 18.24388852 1.17110544 18.24388852 2.3203125 15.953125 C2.65675781 14.98632812 2.65675781 14.98632812 3 14 C3.66 14 4.32 14 5 14 C5 18.62 5 23.24 5 28 C4.34 28 3.68 28 3 28 C2.77570313 27.35546875 2.55140625 26.7109375 2.3203125 26.046875 C1.17110544 23.75611148 1.17110544 23.75611148 -1.3828125 23.390625 C-2.74019531 23.32101563 -2.74019531 23.32101563 -4.125 23.25 C-5.73375 23.1675 -7.3425 23.085 -9 23 C-9 27.62 -9 32.24 -9 37 C-5.90625 36.814375 -5.90625 36.814375 -2.75 36.625 C-1.00976562 36.52058594 -1.00976562 36.52058594 0.765625 36.4140625 C3.75117094 36.03185493 5.54131354 35.68465554 8 34 C9.76727858 30.9665533 9.76727858 30.9665533 11 28 C11.66 28 12.32 28 13 28 C12.69230293 29.81332154 12.37870936 31.62564345 12.0625 33.4375 C11.88847656 34.44683594 11.71445312 35.45617187 11.53515625 36.49609375 C11 39 11 39 10 40 C7.55169574 40.08843793 5.13179401 40.11528752 2.68359375 40.09765625 C1.95253922 40.0962413 1.22148468 40.09482635 0.46827698 40.09336853 C-1.87535632 40.08775408 -4.21889539 40.07519922 -6.5625 40.0625 C-8.14778508 40.05748686 -9.73307166 40.05292363 -11.31835938 40.04882812 C-15.2122761 40.03777997 -19.10612205 40.02050572 -23 40 C-22.01 39.34 -21.02 38.68 -20 38 C-19.66215904 35.31215183 -19.51107756 32.8428575 -19.48828125 30.1484375 C-19.46135445 28.98738998 -19.46135445 28.98738998 -19.43388367 27.80288696 C-19.37963608 25.32698033 -19.34583991 22.85126797 -19.3125 20.375 C-19.27933954 18.69788954 -19.24485107 17.02080477 -19.20898438 15.34375 C-19.12390183 11.22930659 -19.05716047 7.11492223 -19 3 C-20.32 2.34 -21.64 1.68 -23 1 C-19.91675903 0.83159521 -16.83339379 0.66558138 -13.75 0.5 C-12.87730469 0.45230469 -12.00460937 0.40460938 -11.10546875 0.35546875 C-10.26113281 0.31035156 -9.41679687 0.26523438 -8.546875 0.21875 C-7.38430176 0.1559082 -7.38430176 0.1559082 -6.19824219 0.09179688 C-4.13373418 0.00558463 -2.0663073 0 0 0 Z " fill="#000000" transform="translate(394,84)"/>
<path d="M0 0 C0 3.3 0 6.6 0 10 C-0.66 10 -1.32 10 -2 10 C-2.433125 9.195625 -2.86625 8.39125 -3.3125 7.5625 C-3.869375 6.716875 -4.42625 5.87125 -5 5 C-7.475 4.505 -7.475 4.505 -10 4 C-10 8.95 -10 13.9 -10 19 C-8.39125 18.9175 -6.7825 18.835 -5.125 18.75 C-4.22007812 18.70359375 -3.31515625 18.6571875 -2.3828125 18.609375 C0.17110544 18.24388852 0.17110544 18.24388852 1.3203125 15.953125 C1.65675781 14.98632812 1.65675781 14.98632812 2 14 C2.66 14 3.32 14 4 14 C4 18.62 4 23.24 4 28 C3.34 28 2.68 28 2 28 C1.67 26.68 1.34 25.36 1 24 C-2.63 23.67 -6.26 23.34 -10 23 C-10 27.62 -10 32.24 -10 37 C-0.71173261 37.38081211 -0.71173261 37.38081211 7.3125 33.625 C9.12053306 31.05007367 9.12053306 31.05007367 10 28 C10.66 28 11.32 28 12 28 C11.51775271 32.13354822 11.01114519 35.95541924 10 40 C-1.22 40 -12.44 40 -24 40 C-22.68 38.68 -21.36 37.36 -20 36 C-19.65040594 33.31827524 -19.53076226 31.06062042 -19.609375 28.390625 C-19.61786469 27.30041046 -19.61786469 27.30041046 -19.62652588 26.18817139 C-19.64885447 23.87476755 -19.69903952 21.5629328 -19.75 19.25 C-19.77006977 17.67840784 -19.78831971 16.10679132 -19.8046875 14.53515625 C-19.84870707 10.68950283 -19.91770625 6.84501711 -20 3 C-21.32 2.34 -22.64 1.68 -24 1 C-20.93758173 0.83170223 -17.87508013 0.66530338 -14.8125 0.5 C-13.94818359 0.45230469 -13.08386719 0.40460938 -12.19335938 0.35546875 C-11.35224609 0.31035156 -10.51113281 0.26523438 -9.64453125 0.21875 C-8.87471924 0.17685547 -8.10490723 0.13496094 -7.31176758 0.09179688 C-4.87623902 -0.00491437 -2.43744793 0 0 0 Z " fill="#000000" transform="translate(215,84)"/>
<path d="M0 0 C0 3.3 0 6.6 0 10 C-0.66 10 -1.32 10 -2 10 C-2.33 8.68 -2.66 7.36 -3 6 C-5.31 5.34 -7.62 4.68 -10 4 C-10 8.95 -10 13.9 -10 19 C-7.3703125 18.87625 -7.3703125 18.87625 -4.6875 18.75 C-3.70136719 18.70359375 -2.71523438 18.6571875 -1.69921875 18.609375 C1.53616064 18.18543873 1.53616064 18.18543873 4 14 C4 18.62 4 23.24 4 28 C3.01 26.68 2.02 25.36 1 24 C-1.72489473 23.30250411 -1.72489473 23.30250411 -4.6875 23.25 C-6.440625 23.1675 -8.19375 23.085 -10 23 C-10 27.62 -10 32.24 -10 37 C-7.793125 36.9175 -5.58625 36.835 -3.3125 36.75 C-2.07113281 36.70359375 -0.82976562 36.6571875 0.44921875 36.609375 C4.45818343 35.92136786 6.13331836 34.82452456 9 32 C10.31165257 29.88339573 10.31165257 29.88339573 11 28 C11.66 28.33 12.32 28.66 13 29 C12.01 32.63 11.02 36.26 10 40 C-0.89 40 -11.78 40 -23 40 C-22.01 39.01 -21.02 38.02 -20 37 C-19.7018316 34.44812856 -19.57933274 32.14497493 -19.6015625 29.59375 C-19.59869232 28.87264038 -19.59582214 28.15153076 -19.59286499 27.40856934 C-19.59082548 25.88549005 -19.59634753 24.3623845 -19.60888672 22.83935547 C-19.62494357 20.50819322 -19.6090359 18.17876458 -19.58984375 15.84765625 C-19.5918262 14.36718367 -19.59566993 12.88671218 -19.6015625 11.40625 C-19.59245346 10.36084045 -19.59245346 10.36084045 -19.5831604 9.29431152 C-19.63820996 5.37298907 -19.63820996 5.37298907 -21.52490234 2.03710938 C-22.01168457 1.69486328 -22.4984668 1.35261719 -23 1 C-19.91675903 0.83159521 -16.83339379 0.66558138 -13.75 0.5 C-12.87730469 0.45230469 -12.00460937 0.40460938 -11.10546875 0.35546875 C-10.26113281 0.31035156 -9.41679687 0.26523438 -8.546875 0.21875 C-7.38430176 0.1559082 -7.38430176 0.1559082 -6.19824219 0.09179688 C-4.13373418 0.00558463 -2.0663073 0 0 0 Z " fill="#000000" transform="translate(307,84)"/>
<path d="M0 0 C6.98720761 0.32673992 12.77666372 2.60619882 17.625 7.7109375 C19.96465487 10.37679425 22.02986154 13.0447923 24 16 C24.27972656 15.41992188 24.55945313 14.83984375 24.84765625 14.2421875 C27.64719495 8.78713781 30.56179812 4.11265502 36 1 C39.4375 0.625 39.4375 0.625 42 1 C40.948125 1.7425 40.948125 1.7425 39.875 2.5 C32.7702647 8.67803069 27.73811464 16.59157914 26.78857422 26.12207031 C26.65088035 28.43868327 26.58541503 30.74198724 26.5625 33.0625 C26.54727295 34.18869751 26.54727295 34.18869751 26.53173828 35.33764648 C26.53260345 37.71167049 26.53260345 37.71167049 27 41 C27.99 41.66 28.98 42.32 30 43 C24.06 43 18.12 43 12 43 C12.99 42.34 13.98 41.68 15 41 C15.36503905 38.11010752 15.5222988 35.51768239 15.5 32.625 C15.49645508 31.81587158 15.49291016 31.00674316 15.48925781 30.1730957 C15.23282314 20.81787585 12.31271971 12.99581251 6 6 C3.91992516 4.60320394 3.91992516 4.60320394 1.75 3.6875 C1.04359375 3.36136719 0.3371875 3.03523438 -0.390625 2.69921875 C-0.92171875 2.46847656 -1.4528125 2.23773438 -2 2 C-1.34 1.34 -0.68 0.68 0 0 Z " fill="#000000" transform="translate(446,81)"/>
<path d="M0 0 C2.97 0 5.94 0 9 0 C9.625 2.3125 9.625 2.3125 10 5 C9.01 6.485 9.01 6.485 8 8 C8.99 9.65 9.98 11.3 11 13 C9.68 13 8.36 13 7 13 C5.25 11 5.25 11 4 9 C3.67 10.32 3.34 11.64 3 13 C2.01 13 1.02 13 0 13 C0 8.71 0 4.42 0 0 Z M3 2 C3 2.99 3 3.98 3 5 C4.32 5 5.64 5 7 5 C6.67 4.01 6.34 3.02 6 2 C5.01 2 4.02 2 3 2 Z " fill="#000000" transform="translate(157,144)"/>
<path d="M0 0 C4 1 4 1 6.25 4.0625 C7.11625 5.5165625 7.11625 5.5165625 8 7 C8.33 4.69 8.66 2.38 9 0 C9.66 0 10.32 0 11 0 C11 4.62 11 9.24 11 14 C10.01 14 9.02 14 8 14 C6.61328125 12.25 6.61328125 12.25 5.3125 10 C4.87550781 9.2575 4.43851563 8.515 3.98828125 7.75 C3.66214844 7.1725 3.33601562 6.595 3 6 C2.67 8.31 2.34 10.62 2 13 C1.34 13 0.68 13 0 13 C0 8.71 0 4.42 0 0 Z " fill="#000000" transform="translate(225,144)"/>
<path d="M0 0 C0.66 0.33 1.32 0.66 2 1 C0.79618552 3.49361571 -0.45428722 5.68143083 -2 8 C-0.02 10.97 -0.02 10.97 2 14 C0.68 14 -0.64 14 -2 14 C-2.66 13.01 -3.32 12.02 -4 11 C-4.33 11.99 -4.66 12.98 -5 14 C-5.99 14 -6.98 14 -8 14 C-8 9.71 -8 5.42 -8 1 C-7.01 1 -6.02 1 -5 1 C-4.67 1.99 -4.34 2.98 -4 4 C-2.68 2.68 -1.36 1.36 0 0 Z " fill="#000000" transform="translate(251,143)"/>
<path d="M0 0 C0 0.66 0 1.32 0 2 C-1.98 2 -3.96 2 -6 2 C-4.49336217 5.01327566 -1.96833589 5.61056618 1 7 C1.1875 9.375 1.1875 9.375 1 12 C-2.8503105 14.56687367 -4.58569763 13.83288724 -9 13 C-8.67 12.34 -8.34 11.68 -8 11 C-6.02 11 -4.04 11 -2 11 C-2 10.01 -2 9.02 -2 8 C-2.78375 7.87625 -3.5675 7.7525 -4.375 7.625 C-7 7 -7 7 -9 5 C-8.625 2.375 -8.625 2.375 -8 0 C-4.71023192 -1.09658936 -3.28696233 -0.79953138 0 0 Z " fill="#000000" transform="translate(150,144)"/>
<path d="M0 0 C1.32 0.33 2.64 0.66 4 1 C5.265625 3.21484375 5.265625 3.21484375 6.25 5.9375 C6.58515625 6.83339844 6.9203125 7.72929687 7.265625 8.65234375 C8 11 8 11 8 13 C7.01 13 6.02 13 5 13 C4.67 11.68 4.34 10.36 4 9 C2.35 9 0.7 9 -1 9 C-1.33 10.32 -1.66 11.64 -2 13 C-2.99 12.67 -3.98 12.34 -5 12 C-3.35 8.04 -1.7 4.08 0 0 Z M1 4 C1 4.99 1 5.98 1 7 C1.66 6.67 2.32 6.34 3 6 C2.34 5.34 1.68 4.68 1 4 Z " fill="#000000" transform="translate(263,144)"/>
<path d="M0 0 C1.32 0.33 2.64 0.66 4 1 C5.265625 3.21484375 5.265625 3.21484375 6.25 5.9375 C6.58515625 6.83339844 6.9203125 7.72929687 7.265625 8.65234375 C8 11 8 11 8 13 C7.01 13 6.02 13 5 13 C4.67 11.68 4.34 10.36 4 9 C2.35 9 0.7 9 -1 9 C-1.33 10.32 -1.66 11.64 -2 13 C-2.99 12.67 -3.98 12.34 -5 12 C-3.35 8.04 -1.7 4.08 0 0 Z M1 4 C1 4.99 1 5.98 1 7 C1.66 6.67 2.32 6.34 3 6 C2.34 5.34 1.68 4.68 1 4 Z " fill="#000000" transform="translate(211,144)"/>
<path d="M0 0 C0.99 0 1.98 0 3 0 C3 4.29 3 8.58 3 13 C2.01 13 1.02 13 0 13 C0 8.71 0 4.42 0 0 Z " fill="#000000" transform="translate(174,144)"/>
<path d="M0 0 C0.66 0 1.32 0 2 0 C2 3.63 2 7.26 2 11 C3.98 11 5.96 11 8 11 C8 11.66 8 12.32 8 13 C5.36 13 2.72 13 0 13 C0 8.71 0 4.42 0 0 Z " fill="#000000" transform="translate(194,144)"/>
</svg>
