<svg xmlns="http://www.w3.org/2000/svg" xmlns:xlink="http://www.w3.org/1999/xlink" width="500" zoomAndPan="magnify" viewBox="0 0 375 374.999991" height="500" preserveAspectRatio="xMidYMid meet" version="1.0"><defs><clipPath id="2d2a59f022"><path d="M 95.222656 53 L 257 53 L 257 322 L 95.222656 322 Z M 95.222656 53 " clip-rule="nonzero"/></clipPath><clipPath id="930f29f931"><path d="M 271 16.546875 L 279.722656 16.546875 L 279.722656 358.546875 L 271 358.546875 Z M 271 16.546875 " clip-rule="nonzero"/></clipPath></defs><g clip-path="url(#2d2a59f022)"><path fill="#1e9df1" d="M 229.167969 174.332031 L 256.027344 174.367188 L 256.027344 165.996094 L 229.027344 165.996094 L 240.683594 92.726562 L 256.027344 92.726562 L 256.027344 84.355469 L 232.769531 84.355469 L 178.265625 72.636719 L 220.835938 61.480469 L 256.027344 61.480469 L 256.027344 53.109375 L 219.757812 53.109375 L 158.1875 69.242188 L 95.222656 125.148438 L 256.027344 321.898438 Z M 231.878906 92.726562 L 232.207031 92.726562 L 220.644531 165.417969 L 172.566406 158.101562 L 202.308594 86.367188 Z M 161.410156 77.574219 L 193.988281 84.582031 L 164.570312 155.535156 L 108.238281 124.792969 Z M 117.800781 139.546875 L 163.597656 164.539062 L 219.972656 264.558594 Z M 174.519531 166.867188 L 220.5625 173.875 L 241.835938 286.296875 Z M 174.519531 166.867188 " fill-opacity="1" fill-rule="nonzero"/></g><g clip-path="url(#930f29f931)"><path fill="#1e9df1" d="M 271.394531 16.613281 L 279.765625 16.613281 L 279.765625 358.398438 L 271.394531 358.398438 Z M 271.394531 16.613281 " fill-opacity="1" fill-rule="nonzero"/></g></svg>